<?xml version="1.0" encoding="UTF-8" standalone="no"?>
<svg
   xmlns:dc="http://purl.org/dc/elements/1.1/"
   xmlns:cc="http://creativecommons.org/ns#"
   xmlns:rdf="http://www.w3.org/1999/02/22-rdf-syntax-ns#"
   xmlns:svg="http://www.w3.org/2000/svg"
   xmlns="http://www.w3.org/2000/svg"
   xmlns:sodipodi="http://sodipodi.sourceforge.net/DTD/sodipodi-0.dtd"
   xmlns:inkscape="http://www.inkscape.org/namespaces/inkscape"
   viewBox="0 0 1000 207.64967"
   height="207.64967"
   width="1000"
   xml:space="preserve"
   version="1.1"
   id="svg2"
   inkscape:version="0.48.5 r10040"
   sodipodi:docname="logo-paysage-region-normandie-rvb.svg"><sodipodi:namedview
     pagecolor="#ffffff"
     bordercolor="#666666"
     borderopacity="1"
     objecttolerance="10"
     gridtolerance="10"
     guidetolerance="10"
     inkscape:pageopacity="0"
     inkscape:pageshadow="2"
     inkscape:window-width="1049"
     inkscape:window-height="1030"
     id="namedview57"
     showgrid="false"
     fit-margin-left="0.5"
     fit-margin-bottom="0.5"
     fit-margin-top="0.5"
     fit-margin-right="0.5"
     inkscape:zoom="0.40505376"
     inkscape:cx="464.7139"
     inkscape:cy="-369.67137"
     inkscape:window-x="865"
     inkscape:window-y="-10"
     inkscape:window-maximized="0"
     inkscape:current-layer="svg2" /><metadata
     id="metadata8"><rdf:RDF><cc:Work
         rdf:about=""><dc:format>image/svg+xml</dc:format><dc:type
           rdf:resource="http://purl.org/dc/dcmitype/StillImage" /><dc:title></dc:title></cc:Work></rdf:RDF></metadata><defs
     id="defs6"><clipPath
       id="clipPath18"
       clipPathUnits="userSpaceOnUse"><path
         id="path20"
         d="M 0,86 359,86 359,0 0,0 0,86 z"
         inkscape:connector-curvature="0" /></clipPath><clipPath
       id="clipPath18-1"
       clipPathUnits="userSpaceOnUse"><path
         inkscape:connector-curvature="0"
         id="path20-7"
         d="m 0,287.5 304,0 L 304,0 0,0 0,287.5 z" /></clipPath></defs><g
     id="g3259"
     transform="matrix(5.4802609,0,0,-5.4802609,64.57521,68.96489)"><path
       d="m 0,0 c -1.941,0 -3.504,-1.219 -4.266,-2.78 l 0,-7.427 c 0.648,-1.639 2.096,-3.01 4.076,-3.01 2.743,0 4.723,2.628 4.723,6.59 C 4.533,-3.047 3.01,0 0,0 m 0.496,-15.769 c -2.362,0 -4.075,1.105 -5.37,2.286 l -1.677,-2.019 -1.637,0 0,20.834 c 0,3.733 -0.304,4.19 -2.705,4.19 l -0.799,0 0,1.714 7.426,1.257 0,-11.96 c 1.182,1.219 2.857,2.057 5.067,2.057 4.989,0 8.074,-4.532 8.074,-9.179 0,-4.724 -3.504,-9.18 -8.379,-9.18"
       style="fill:#231f20;fill-opacity:1;fill-rule:nonzero;stroke:none"
       id="path3261"
       inkscape:connector-curvature="0" /></g><g
     id="g3263"
     transform="matrix(5.4802609,0,0,-5.4802609,172.07706,67.50385)"
     style="fill:#009b41;fill-opacity:1"><path
       d="m 0,0 c -2.857,0 -4.761,-2.438 -4.761,-6.894 0,-4.609 2.133,-6.818 4.723,-6.818 2.742,0 4.837,2.209 4.837,6.818 C 4.799,-2.019 2.628,0 0,0 m 0.039,-16.035 c -5.181,0 -9.142,3.961 -9.142,9.18 0,5.065 3.809,9.178 9.142,9.178 5.179,0 9.103,-4.037 9.103,-9.178 0,-5.067 -3.885,-9.18 -9.103,-9.18"
       style="fill:#009b41;fill-opacity:1;fill-rule:nonzero;stroke:none"
       id="path3265"
       inkscape:connector-curvature="0" /></g><g
     id="g3267"
     transform="matrix(5.4802609,0,0,-5.4802609,288.75729,152.45833)"><path
       d="m 0,0 0,1.828 0.61,0 c 2.4,0 2.324,1.258 2.324,5.37 l 0,3.086 c 0,3.009 -0.801,4.609 -3.162,4.609 -2.362,0 -3.847,-1.829 -4.532,-2.971 l 0,-4.724 c 0,-4.037 -0.191,-5.37 2.4,-5.37 l 0.456,0 0,-1.828 -10.169,0 0,1.828 0.875,0 c 2.438,0 2.552,1.258 2.552,5.37 l 0,2.896 c 0,4.151 -0.457,4.799 -2.894,4.799 l -0.648,0 0,1.713 6.513,1.219 c 0.419,-0.838 0.61,-1.828 0.762,-2.742 1.219,1.409 2.971,2.742 5.904,2.742 3.542,0 5.865,-2.361 5.865,-6.551 l 0,-3.771 c 0,-4.304 0,-5.675 2.4,-5.675 l 0.952,0 L 10.208,0 0,0 z"
       style="fill:#231f20;fill-opacity:1;fill-rule:nonzero;stroke:none"
       id="path3269"
       inkscape:connector-curvature="0" /></g><g
     id="g3271"
     transform="matrix(5.4802609,0,0,-5.4802609,447.60432,101.10776)"><path
       d="m 0,0 c -4.608,-1.181 -6.17,-3.085 -6.17,-4.609 0,-1.6 1.105,-2.438 2.361,-2.438 1.067,0 2.476,0.533 3.809,1.904 L 0,0 z m 3.352,-9.903 c -1.904,0 -2.895,1.409 -3.123,2.361 -1.829,-1.676 -3.885,-2.361 -5.637,-2.361 -2.59,0 -4.913,1.904 -4.913,4.76 0,3.58 3.884,6.095 10.284,7.314 0,3.085 -1.029,3.999 -2.819,3.999 -1.943,0 -2.514,-0.952 -2.628,-1.714 -0.115,-0.876 -0.534,-1.98 -1.905,-1.98 -0.609,0 -2.019,0.304 -2.019,2.056 0,2.285 3.353,3.923 6.437,3.923 4.951,0 6.857,-2.323 6.857,-6.475 l 0,-8.189 c 0,-0.838 0.419,-1.181 0.914,-1.181 0.494,0 1.18,0.305 1.447,0.534 L 7.313,-8.38 C 6.285,-9.218 4.837,-9.903 3.352,-9.903"
       style="fill:#231f20;fill-opacity:1;fill-rule:nonzero;stroke:none"
       id="path3273"
       inkscape:connector-curvature="0" /></g><g
     id="g3275"
     transform="matrix(5.4802609,0,0,-5.4802609,545.29655,68.96489)"><path
       d="m 0,0 c -1.943,0 -3.467,-1.219 -4.229,-2.78 l 0,-8.152 c 0.724,-1.485 2.134,-2.361 4.039,-2.361 2.742,0 4.721,2.704 4.721,6.666 C 4.531,-3.047 3.009,0 0,0 m 0.419,-15.769 c -1.866,0 -3.429,0.457 -4.648,1.333 l 0,-3.58 c 0,-4 -0.038,-5.332 2.743,-5.332 l 0.877,0 0,-1.867 -10.97,0 0,1.867 0.913,0 c 2.438,0 2.553,1.218 2.553,5.332 l 0,12.874 c 0,4.266 -0.457,4.799 -3.047,4.799 l -0.457,0 0,1.714 6.474,1.219 C -4.8,1.904 -4.608,1.181 -4.418,0.305 -3.162,1.714 -1.41,2.59 0.799,2.59 c 4.99,0 8.037,-4.532 8.037,-9.179 0,-4.838 -3.58,-9.18 -8.417,-9.18"
       style="fill:#231f20;fill-opacity:1;fill-rule:nonzero;stroke:none"
       id="path3277"
       inkscape:connector-curvature="0" /></g><g
     id="g3279"
     transform="matrix(5.4802609,0,0,-5.4802609,655.90794,68.96489)"><path
       d="m 0,0 c -1.942,0 -3.467,-1.219 -4.229,-2.78 l 0,-8.152 c 0.724,-1.485 2.133,-2.361 4.039,-2.361 2.741,0 4.722,2.704 4.722,6.666 C 4.532,-3.047 3.008,0 0,0 m 0.418,-15.769 c -1.866,0 -3.428,0.457 -4.647,1.333 l 0,-3.58 c 0,-4 -0.037,-5.332 2.744,-5.332 l 0.875,0 0,-1.867 -10.97,0 0,1.867 0.915,0 c 2.438,0 2.553,1.218 2.553,5.332 l 0,12.874 c 0,4.266 -0.458,4.799 -3.048,4.799 l -0.457,0 0,1.714 6.474,1.219 c 0.343,-0.686 0.534,-1.409 0.724,-2.285 1.258,1.409 3.01,2.285 5.218,2.285 4.99,0 8.037,-4.532 8.037,-9.179 0,-4.838 -3.579,-9.18 -8.418,-9.18"
       style="fill:#231f20;fill-opacity:1;fill-rule:nonzero;stroke:none"
       id="path3281"
       inkscape:connector-curvature="0" /></g><g
     id="g3283"
     transform="matrix(5.4802609,0,0,-5.4802609,774.88932,85.24512)"><path
       d="m 0,0 c 0,1.333 -0.457,3.237 -3.086,3.237 -1.752,0 -3.275,-1.409 -3.694,-3.58 L 0,-0.343 0,0 z m -2.819,-12.798 c -5.294,0 -8.455,4.152 -8.455,9.142 0,4.608 3.314,9.217 8.418,9.217 5.217,0 6.779,-3.885 6.779,-6.208 0,-0.762 -0.076,-1.562 -0.153,-2.02 l -10.892,0 0,-0.457 c 0,-4.685 2.284,-7.008 5.217,-7.008 1.715,0 3.885,0.953 5.18,2.209 L 4.646,-9.522 C 2.857,-11.465 0,-12.798 -2.819,-12.798"
       style="fill:#231f20;fill-opacity:1;fill-rule:nonzero;stroke:none"
       id="path3285"
       inkscape:connector-curvature="0" /></g><g
     id="g3287"
     transform="matrix(5.4802609,0,0,-5.4802609,842.09757,155.17216)"><path
       d="m 0,0 c -2.666,0 -4.342,1.485 -4.342,4.494 l 0,10.779 -2.78,0 0,1.79 c 2.514,0.497 4.038,1.905 4.419,5.372 l 2.246,0 0,-4.837 4.53,0 0,-2.325 -4.53,0 0,-9.522 c 0,-1.676 0.228,-3.123 1.639,-3.123 1.141,0 1.979,0.457 2.97,1.333 L 5.295,2.514 C 4.152,1.333 2.438,0 0,0"
       style="fill:#231f20;fill-opacity:1;fill-rule:nonzero;stroke:none"
       id="path3289"
       inkscape:connector-curvature="0" /></g><g
     id="g3291"
     transform="matrix(5.4802609,0,0,-5.4802609,875.30037,152.45833)"><path
       d="m 0,0 0,1.828 0.496,0 c 2.438,0 2.895,0.571 2.895,4.686 l 0,3.58 c 0,4.151 -0.381,4.799 -2.781,4.799 l -0.647,0 0,1.713 7.312,1.257 0,-11.312 c 0,-3.352 -0.037,-4.723 2.552,-4.723 l 0.877,0 L 10.704,0 0,0 z"
       style="fill:#231f20;fill-opacity:1;fill-rule:nonzero;stroke:none"
       id="path3293"
       inkscape:connector-curvature="0" /></g><g
     id="g3295"
     transform="matrix(5.4802609,0,0,-5.4802609,970.48747,155.17216)"><path
       d="m 0,0 c -2.666,0 -4.342,1.485 -4.342,4.494 l 0,10.779 -2.781,0 0,1.79 c 2.514,0.497 4.038,1.905 4.419,5.372 l 2.247,0 0,-4.837 4.876,0 0,-2.325 -4.876,0 0,-9.522 c 0,-1.676 0.228,-3.123 1.638,-3.123 1.142,0 1.98,0.457 2.971,1.333 L 5.294,2.514 C 4.152,1.333 2.438,0 0,0"
       style="fill:#231f20;fill-opacity:1;fill-rule:nonzero;stroke:none"
       id="path3297"
       inkscape:connector-curvature="0" /></g><g
     id="g3299"
     transform="matrix(5.4802609,0,0,-5.4802609,787.53066,32.97383)"
     style="fill:#009b41;fill-opacity:1"><path
       d="m 0,0 -5.828,-2.589 -0.724,0.951 4.075,3.924 c 0.801,0.761 1.601,1.408 2.363,1.408 1.104,0 1.79,-0.684 1.79,-1.561 C 1.676,1.143 1.218,0.572 0,0"
       style="fill:#009b41;fill-opacity:1;fill-rule:nonzero;stroke:none"
       id="path3301"
       inkscape:connector-curvature="0" /></g><g
     id="g3303"
     transform="matrix(5.4802609,0,0,-5.4802609,900.95667,40.40234)"><path
       d="m 0,0 c -1.294,0 -2.361,1.104 -2.361,2.399 0,1.295 1.067,2.4 2.361,2.4 1.295,0 2.362,-1.105 2.362,-2.4 C 2.362,1.104 1.295,0 0,0"
       style="fill:#231f20;fill-opacity:1;fill-rule:nonzero;stroke:none"
       id="path3305"
       inkscape:connector-curvature="0" /></g></svg>