<?xml version="1.0" encoding="utf-8"?>
<!-- Generator: Adobe Illustrator 27.0.1, SVG Export Plug-In . SVG Version: 6.00 Build 0)  -->
<svg version="1.1" id="svg2" xmlns="http://www.w3.org/2000/svg" xmlns:xlink="http://www.w3.org/1999/xlink" x="0px" y="0px"
	 viewBox="0 0 2500 2469" style="enable-background:new 0 0 2500 2469;" xml:space="preserve">
<style type="text/css">
	.st0{clip-path:url(#SVGID_00000093144080580590216750000004526775923776161673_);}
	.st1{fill:url(#path54_00000046308524691494916920000017356477723000617103_);}
	.st2{clip-path:url(#SVGID_00000092421808621621288090000003380039819150278791_);}
	.st3{fill:url(#path72_00000059989669785776350220000007197455622317694892_);}
	.st4{clip-path:url(#SVGID_00000115503373400482764340000018138950274051063981_);}
	.st5{fill:url(#path90_00000080177103870619877890000002489090086594356900_);}
	.st6{clip-path:url(#SVGID_00000173121554060468288190000005067455384392533931_);}
	.st7{fill:url(#path108_00000167393784065763635480000009128393682151842432_);}
</style>
<g id="g10" transform="matrix(1.33333 0 0 -1.33333 0 752.347)">
	<g id="g12" transform="scale(.1)">
		<g id="g38">
			<g>
				<defs>
					<path id="SVGID_1_" d="M11254.6-2210.6c-25.3,36.1-54.5,66.6-87.3,93.5c-32.5,26.9-69.6,49.6-109.3,67.6
						c-40.4,18.4-84.3,32.2-131.9,41c-47.9,9.2-99.1,13.5-154.2,13.5c-55.5,0-107.6-4.3-158.2-13.5c-49.2-8.9-96.5-23-141.4-40.7
						c-44.6-18.7-87.6-41.3-129-67.9c-41.7-27.2-81.4-58.7-120.4-94.8c-72.2-64.3-132.6-139.1-185.1-224.5
						c-52.2-85-96.5-178.5-134.2-281.9c-38.1-101.4-69.6-213.3-99.1-330.8c-28.2-117.2-54.1-241.5-79.1-372.8
						c-25.3-129-48.6-254.3-65.6-373.5c-17.7-118.5-28.2-231.4-31.2-335.7c-3-104.4,3-200.2,20.7-286.8
						c17.7-85.3,47.3-161.8,90.6-227.7c26.6-35.1,55.1-66.9,88.3-94.5c32.2-27.9,68.6-50.9,108-68.9c40.4-18,84.7-31.5,131.9-40.7
						c47.9-8.9,100.1-13.1,156.5-12.5c55.8,1.6,109.6,6.9,159.5,16.7c51.5,10.2,99.8,25.6,146.4,44.6c46.3,19.4,91.2,43,133.6,72.2
						c42.3,28.2,83.7,60.4,122.4,97.1c71.2,66,131.6,143.1,182.8,229.7c52.2,86.6,94.5,183.4,131.9,287.1
						c20.3,56.1,38.7,115.2,55.8,175.9c14.4,51.2,28.5,103.4,41.3,157.5c28.6,117.5,54.5,241.5,78.8,370.5
						c11.5,60.7,22.3,119.8,32.2,177.5c11.8,66,22,130.3,30.8,192.6c16.1,117.2,26.6,226.1,28.6,327.8
						c2.6,102.1-3.9,195.6-22.3,278.9C11328.8-2349.7,11299.2-2274.5,11254.6-2210.6L11254.6-2210.6z"/>
				</defs>
				<clipPath id="SVGID_00000127039204656111046280000007973241144728524417_">
					<use xlink:href="#SVGID_1_"  style="overflow:visible;"/>
				</clipPath>
				<g id="g40" style="clip-path:url(#SVGID_00000127039204656111046280000007973241144728524417_);">
					
						<linearGradient id="path54_00000168075002450479538810000017518872210309665455_" gradientUnits="userSpaceOnUse" x1="24988.3945" y1="12372.6553" x2="24989.3945" y2="12372.6553" gradientTransform="matrix(149.9236 263.0039 263.0039 -149.9236 -6994345 -4728305)">
						<stop  offset="0" style="stop-color:#7F161B"/>
						<stop  offset="0.5" style="stop-color:#CC1E25"/>
						<stop  offset="1" style="stop-color:#ED1736"/>
					</linearGradient>
					<path id="path54" style="fill:url(#path54_00000168075002450479538810000017518872210309665455_);" d="M11254.6-2210.6
						c-25.3,36.1-54.5,66.6-87.3,93.5c-32.5,26.9-69.6,49.6-109.3,67.6c-40.4,18.4-84.3,32.2-131.9,41
						c-47.9,9.2-99.1,13.5-154.2,13.5c-55.5,0-107.6-4.3-158.2-13.5c-49.2-8.9-96.5-23-141.4-40.7c-44.6-18.7-87.6-41.3-129-67.9
						c-41.7-27.2-81.4-58.7-120.4-94.8c-72.2-64.3-132.6-139.1-185.1-224.5c-52.2-85-96.5-178.5-134.2-281.9
						c-38.1-101.4-69.6-213.3-99.1-330.8c-28.2-117.2-54.1-241.5-79.1-372.8c-25.3-129-48.6-254.3-65.6-373.5
						c-17.7-118.5-28.2-231.4-31.2-335.7c-3-104.4,3-200.2,20.7-286.8c17.7-85.3,47.3-161.8,90.6-227.7
						c26.6-35.1,55.1-66.9,88.3-94.5c32.2-27.9,68.6-50.9,108-68.9c40.4-18,84.7-31.5,131.9-40.7c47.9-8.9,100.1-13.1,156.5-12.5
						c55.8,1.6,109.6,6.9,159.5,16.7c51.5,10.2,99.8,25.6,146.4,44.6c46.3,19.4,91.2,43,133.6,72.2c42.3,28.2,83.7,60.4,122.4,97.1
						c71.2,66,131.6,143.1,182.8,229.7c52.2,86.6,94.5,183.4,131.9,287.1c20.3,56.1,38.7,115.2,55.8,175.9
						c14.4,51.2,28.5,103.4,41.3,157.5c28.6,117.5,54.5,241.5,78.8,370.5c11.5,60.7,22.3,119.8,32.2,177.5
						c11.8,66,22,130.3,30.8,192.6c16.1,117.2,26.6,226.1,28.6,327.8c2.6,102.1-3.9,195.6-22.3,278.9
						C11328.8-2349.7,11299.2-2274.5,11254.6-2210.6"/>
				</g>
			</g>
		</g>
		<g id="g56">
			<g>
				<defs>
					<path id="SVGID_00000056403356404221256250000017524177540302429367_" d="M7146.2-2210.6c-25.6,36.1-54.8,66.6-87.3,93.5
						c-32.5,26.9-69.9,49.2-109.9,67.6c-40.4,18-84,32.2-131.6,41.3c-47.6,8.5-99.1,12.8-154.2,13.1c-55.5,0-108-4.3-158.2-13.5
						c-48.9-8.9-96.5-22.6-141.4-40.7c-45-18.7-87.9-41.7-129-68.3c-41.3-26.9-81.4-58.7-121.1-93.9
						c-71.5-65-132.6-139.8-184.8-224.8c-52.5-85-96.8-178.5-133.9-281.9c-38.4-101.4-70.2-213-99.4-330.8
						c-28.6-117.2-54.5-241.5-78.8-372.8c-25.6-129-48.6-254.7-66-373.1c-17.1-118.8-28.6-231.7-30.8-336.4
						c-3.3-104.4,2.6-199.9,20-286.2c18.4-86,47.3-162.8,91.6-228.4c25.9-35.1,54.8-66.9,87.6-94.5c31.8-27.9,68.6-50.9,108.6-68.9
						c40.4-18,84.3-31.5,131.6-41c47.9-8.5,100.4-12.8,156.5-12.5c55.1,1.3,108.6,7.2,159.8,16.4c50.5,10.5,99.4,25.6,146.4,45
						c45.9,19.4,90.9,43,132.9,71.9c42.7,28.6,83.7,61,122.7,97.8c71.2,66,131.3,142.8,182.8,229.7
						c51.9,86.6,94.8,182.8,132.3,286.8c21,57.1,39.4,116.8,56.8,178.9c14.4,50.2,28.2,102.1,41,154.9
						c28.2,117.5,53.8,241.5,78.4,370.2c11.5,60.4,22,119.1,32.2,176.6c11.5,66,22,130.6,30.5,193.6
						c16.4,116.8,26.9,226.8,28.6,327.8c2.6,102.1-3.9,195.6-22.6,278.9C7220.1-2349.7,7190.2-2274.5,7146.2-2210.6L7146.2-2210.6z"
						/>
				</defs>
				<clipPath id="SVGID_00000155111883221174097830000008082441420387438270_">
					<use xlink:href="#SVGID_00000056403356404221256250000017524177540302429367_"  style="overflow:visible;"/>
				</clipPath>
				<g id="g58" style="clip-path:url(#SVGID_00000155111883221174097830000008082441420387438270_);">
					
						<linearGradient id="path72_00000160184714762749688970000011550310315162941089_" gradientUnits="userSpaceOnUse" x1="24988.3945" y1="12372.6533" x2="24989.3945" y2="12372.6533" gradientTransform="matrix(149.9236 263.0039 263.0039 -149.9236 -6997445.5 -4726536.5)">
						<stop  offset="0" style="stop-color:#7F161B"/>
						<stop  offset="0.5" style="stop-color:#CC1E25"/>
						<stop  offset="1" style="stop-color:#ED1736"/>
					</linearGradient>
					<path id="path72" style="fill:url(#path72_00000160184714762749688970000011550310315162941089_);" d="M7146.2-2210.6
						c-25.6,36.1-54.8,66.6-87.3,93.5c-32.5,26.9-69.9,49.2-109.9,67.6c-40.4,18-84,32.2-131.6,41.3c-47.6,8.5-99.1,12.8-154.2,13.1
						c-55.5,0-108-4.3-158.2-13.5c-48.9-8.9-96.5-22.6-141.4-40.7c-45-18.7-87.9-41.7-129-68.3c-41.3-26.9-81.4-58.7-121.1-93.9
						c-71.5-65-132.6-139.8-184.8-224.8c-52.5-85-96.8-178.5-133.9-281.9c-38.4-101.4-70.2-213-99.4-330.8
						c-28.6-117.2-54.5-241.5-78.8-372.8c-25.6-129-48.6-254.7-66-373.1c-17.1-118.8-28.6-231.7-30.8-336.4
						c-3.3-104.4,2.6-199.9,20-286.2c18.4-86,47.3-162.8,91.6-228.4c25.9-35.1,54.8-66.9,87.6-94.5c31.8-27.9,68.6-50.9,108.6-68.9
						c40.4-18,84.3-31.5,131.6-41c47.9-8.5,100.4-12.8,156.5-12.5c55.1,1.3,108.6,7.2,159.8,16.4c50.5,10.5,99.4,25.6,146.4,45
						c45.9,19.4,90.9,43,132.9,71.9c42.7,28.6,83.7,61,122.7,97.8c71.2,66,131.3,142.8,182.8,229.7
						c51.9,86.6,94.8,182.8,132.3,286.8c21,57.1,39.4,116.8,56.8,178.9c14.4,50.2,28.2,102.1,41,154.9
						c28.2,117.5,53.8,241.5,78.4,370.2c11.5,60.4,22,119.1,32.2,176.6c11.5,66,22,130.6,30.5,193.6
						c16.4,116.8,26.9,226.8,28.6,327.8c2.6,102.1-3.9,195.6-22.6,278.9C7220.1-2349.7,7190.2-2274.5,7146.2-2210.6"/>
				</g>
			</g>
		</g>
		<g id="g74">
			<g>
				<defs>
					<path id="SVGID_00000106133603154019618630000011198397157254676393_" d="M15241.5-2106.2c-32.8,26.9-70.2,49.6-110.3,67.6
						c-40.4,19-85.3,32.8-133.2,41.3c-48.2,9.5-99.8,14.1-155.6,14.4c-56.1-0.3-108.6-4.9-159.5-14.4c-50.2-8.5-97.5-23-142.8-40.7
						c-45-19-88.6-42-130.6-68.6c-41.7-27.6-82-59.7-121.4-95.8c-72.9-64.6-133.9-140.8-187.1-226.1
						c-52.8-86.3-97.1-180.8-135.2-284.9c-38.4-103-70.9-215.3-100.1-334.1c-28.6-118.1-54.5-243.8-80.1-376.4
						c-25.6-130.6-48.9-257-66-377.4c-17.7-119.5-28.6-233.3-31.8-339c-3-105.3,3.6-201.8,21-289.8c18.4-86.6,47.6-164.1,91.9-229.7
						c26.6-36.1,55.8-68.3,89.3-95.8c32.2-28.2,68.9-51.2,109-69.2c41-19,85-32.2,133.6-41.7c48.2-9.2,101.4-13.1,157.8-12.5
						c56.1,1.3,110.3,6.9,161.1,17.1c51.9,10.2,100.4,25.6,147.7,44.6c46.9,19.4,91.9,44,135.2,73.2c42.7,28.6,84,61,123.4,98.8
						c72.2,66.6,132.9,144.7,184.8,231.7c52.2,87.9,95.5,185.1,133.6,289.8c20.7,56.8,39.4,116.5,56.8,178.2
						c21.7,68.3,41.3,138.5,58.7,213c24.6,104.7,45.9,215,66.6,329.5c10.2,58.1,20,115.2,28.6,170.6c11.5,66,21.7,131.3,30.5,194.3
						c16.4,118.5,26.9,228.4,28.9,331.1c2.6,102.7-4.3,197.6-23,281.2c-18,85-47.6,160.8-92.2,225.8
						C15304.2-2164.9,15274.7-2133.8,15241.5-2106.2L15241.5-2106.2z"/>
				</defs>
				<clipPath id="SVGID_00000056414884912898962130000004116890986253588129_">
					<use xlink:href="#SVGID_00000106133603154019618630000011198397157254676393_"  style="overflow:visible;"/>
				</clipPath>
				<g id="g76" style="clip-path:url(#SVGID_00000056414884912898962130000004116890986253588129_);">
					
						<linearGradient id="path90_00000096033386278990529830000015091524954397859978_" gradientUnits="userSpaceOnUse" x1="24988.3945" y1="12372.6523" x2="24989.3945" y2="12372.6523" gradientTransform="matrix(149.9236 263.0039 263.0039 -149.9236 -6991271.5 -4730055)">
						<stop  offset="0" style="stop-color:#7F161B"/>
						<stop  offset="0.5" style="stop-color:#CC1E25"/>
						<stop  offset="1" style="stop-color:#ED1736"/>
					</linearGradient>
					<path id="path90" style="fill:url(#path90_00000096033386278990529830000015091524954397859978_);" d="M15241.5-2106.2
						c-32.8,26.9-70.2,49.6-110.3,67.6c-40.4,19-85.3,32.8-133.2,41.3c-48.2,9.5-99.8,14.1-155.6,14.4
						c-56.1-0.3-108.6-4.9-159.5-14.4c-50.2-8.5-97.5-23-142.8-40.7c-45-19-88.6-42-130.6-68.6c-41.7-27.6-82-59.7-121.4-95.8
						c-72.9-64.6-133.9-140.8-187.1-226.1c-52.8-86.3-97.1-180.8-135.2-284.9c-38.4-103-70.9-215.3-100.1-334.1
						c-28.6-118.1-54.5-243.8-80.1-376.4c-25.6-130.6-48.9-257-66-377.4c-17.7-119.5-28.6-233.3-31.8-339
						c-3-105.3,3.6-201.8,21-289.8c18.4-86.6,47.6-164.1,91.9-229.7c26.6-36.1,55.8-68.3,89.3-95.8c32.2-28.2,68.9-51.2,109-69.2
						c41-19,85-32.2,133.6-41.7c48.2-9.2,101.4-13.1,157.8-12.5c56.1,1.3,110.3,6.9,161.1,17.1c51.9,10.2,100.4,25.6,147.7,44.6
						c46.9,19.4,91.9,44,135.2,73.2c42.7,28.6,84,61,123.4,98.8c72.2,66.6,132.9,144.7,184.8,231.7
						c52.2,87.9,95.5,185.1,133.6,289.8c20.7,56.8,39.4,116.5,56.8,178.2c21.7,68.3,41.3,138.5,58.7,213
						c24.6,104.7,45.9,215,66.6,329.5c10.2,58.1,20,115.2,28.6,170.6c11.5,66,21.7,131.3,30.5,194.3
						c16.4,118.5,26.9,228.4,28.9,331.1c2.6,102.7-4.3,197.6-23,281.2c-18,85-47.6,160.8-92.2,225.8
						C15304.2-2164.9,15274.7-2133.8,15241.5-2106.2"/>
				</g>
			</g>
		</g>
		<g id="g92">
			<g>
				<defs>
					<path id="SVGID_00000115492316352662365090000008405059566014429332_" d="M12433.4-2861.3c-12.5-162.8-37.4-340.3-70.9-537.2
						c-33.5-198.2-69.9-378.1-113.2-542.8c-43.6-164.4-93.9-315-154.9-453.5c-60.7-138.5-131.9-265.2-216.9-383.3
						c-85-118.8-184.1-230-300.6-335.1c-85.5-76.7-176.7-146.8-273-209.4c-101.1-65.3-213-127-335.4-178.2
						c-123.1-51.9-255.3-93.9-398.4-126.3c-143.7-29.9-297.7-48.9-462.1-50.2c-164.1-3-312.1,11.5-445.7,38.4
						c-133.9,26.9-253,66.9-357.7,116.2c-104.7,49.2-196.6,107-275,171.6c-78.8,65.3-145.7,135.2-201.2,207.1
						c-81.1,105.3-141.8,215-186.7,334.4c-43.6,119.5-70.2,247.4-82.7,387.2c-11.5,140.8-9.2,293.1,6.6,460.4
						c14.8,168.4,42.3,350.8,78.8,553c37.4,200.2,78.4,381.3,125.4,546.4c47.6,166.1,101.1,315.7,164.4,453.9
						c64.6,137.2,138.2,262.9,226.1,380c88.3,116.2,189,224.8,307.8,327.2c80.7,69.9,172,138.5,273,201.2
						c101.4,63,212.3,119.5,333.1,168.4c121.1,47.3,252,87.3,392.8,113.2c141.1,27.6,291.7,42,452.2,39.7
						c159.5-0.7,304.2-17.1,433.8-46.6c130.3-28.2,246.1-69.6,348.5-118.5c102.7-48.6,192-107.6,269.1-170.6
						c76.8-63.3,141.4-131.6,194.3-201.8c79.4-102.1,140.1-209,183.8-324.6c44.3-115.5,71.2-238.6,84.3-374.4
						C12447.5-2551.2,12446.5-2698.9,12433.4-2861.3L12433.4-2861.3z M8324.7-2861.3c-12.5-162.8-37.4-340.3-71.2-537.2
						c-33.1-198.2-69.9-378.4-113.2-542.8c-43.3-164.4-93.9-315-154.6-453.5c-60.4-138.5-131.6-265.8-216.3-383.6
						c-85.3-118.5-184.4-229.4-300.9-334.7c-80.7-72.9-171.3-143.4-272.4-209.7c-101.4-65-213-126.7-335.7-177.5
						c-122.7-52.2-255.3-94.5-398.4-126.3c-143.4-29.5-297.6-48.9-461.4-50.5c-164.4-2.6-312.7,11.8-445.7,38.7
						c-133.6,26.6-253,66.6-357.4,116.5c-105.3,48.9-196.2,106.7-275,171.3c-78.8,65-145.1,134.9-200.8,207.1
						c-81.4,104.7-142.4,215.6-186.7,334.4c-43.6,119.5-70.2,247.4-82.4,387.9c-11.5,140.1-9.2,292.4,6.2,459.8
						c14.8,168.4,42,350.8,79.1,552.6c37.4,200.5,78.1,382,125.4,546.7c47.3,166.1,100.7,315.7,164.4,454.2
						c64.3,137.2,138.2,263.2,225.8,380c87.9,116.2,189,224.8,307.2,327.2c81.1,69.9,172.3,138.2,273.4,201.2
						c101.1,63,212.3,119.5,333.4,168c120.8,47.6,252,87.6,392.8,114.2c140.8,26.9,291.4,41.7,451.9,39.4
						c159.5-0.7,303.9-17.1,433.8-46.9c130.6-27.9,245.8-69.2,348.8-118.5c102.7-49.6,192-108,268.4-170.6
						c76.8-63.3,141.4-131.6,194.6-201.8c79.1-102.1,139.5-208.7,183.8-324.6c43.6-116.2,71.2-238.9,84-374.8
						C8339.1-2551.2,8337.8-2698.9,8324.7-2861.3L8324.7-2861.3z M17756.3,64c-52.5-9.8-102.1-24.3-148.7-43
						c-47.3-20-92.9-43.3-136.5-72.2c-42.7-28.2-85-61.7-126-99.1c-75.8-67.6-139.1-147-194.3-236
						c-54.5-89.3-101.1-187.7-140.5-296.3c-39.7-107-73.2-224.1-104-347.5c-28.9-123.4-56.1-254.3-82-391.8
						c-15.8-82-149.6-868.7-256.6-1506.6c-0.3,0-145.7-827.6-145.7-827.6s-3.6-21-8.5-51.9c-2.6-15.4-5.9-31.5-8.5-45.9
						c-11.5-66.6-19-130.3-25.3-192c-3.3-27.9-5.9-52.2-6.9-70.2c-1.3-24.6-3.6-73.5-3.6-73.5c1-3.6,1.6-6.9,2-10.5
						c-0.7-64.3,1.6-126,11.8-182.5c13.5-73.2,37.1-139.5,72.9-195.9c21.3-30.2,45.3-58.1,72.5-82c26.9-24,57.8-44,90.6-60.4
						c34.1-16.7,70.9-28.6,111.2-36.8c6.6-1.6,13.5-1.6,20.3-3.6l-292.7-938.9c-30.2-0.3-60.4-1.6-91.2-1
						c-110.3,3.9-211.7,16.7-304.9,39.4c-91.9,22-176.9,52.2-254.3,92.2c-14.4,7.5-27.6,16.7-41.3,25.3
						c-54.5,28.2-106.3,57.8-153.6,91.9c-71.5,52.2-133.9,111.2-185.7,175.6c-83,105-140.5,227.8-178.9,360.7
						c-47.3-83-104-165.4-172.6-244.5c-30.2-34.1-61.4-66-93.5-96.5l-3-5.3c-6.6-5.3-13.1-11.2-19-16.4
						c-15.8-14.8-31.2-28.9-47.6-42c-0.7-0.3-0.7-1.3-1.6-1.6c-16.7-14.4-33.5-27.9-50.5-41.3c-49.9-39.7-99.8-75.8-149.6-107.6
						c-89.6-57.8-180.2-102.7-273.4-137.5c-93.2-34.1-190-57.8-291.4-71.9c-102.4-14.1-209.4-18.4-324.2-14.4
						c-105.7,3.9-207.7,16.7-304.5,39.1c-96.8,22.6-189,52.5-273,91.6c-84.7,38.4-161.1,85-229.4,137.5
						c-67.6,52.2-126.7,111.2-174.9,175.2c-87,116.8-143.1,254-175.2,403.3c-32.5,148-42.3,309.8-37.4,478.5
						c5.9,168,26.9,341.3,54.5,514.6c28.6,173.3,63.7,345.9,98.5,512.9c34.8,166.1,71.2,338.7,114.2,508.7
						c43.3,171,93.2,340,155.2,501.4c61.7,161.8,135.5,315.4,226.8,453.5c90.2,138.8,198.5,263.8,328.8,365.9
						c71.5,58.1,151.6,109,236.9,153.6c86,44,176.9,80.7,272.1,109.9c95.2,29.9,194.6,49.6,295.7,63
						c101.4,11.8,204.5,15.4,308.2,9.5c107-6.2,207.7-19,299.6-41c92.5-20.7,178.2-50.5,256.3-89.9c77.8-38.7,149-88.3,214.3-148
						c57.8-53.5,109.6-116.8,157.2-188.7c8.5,62,17.7,124.4,29.5,188.7c29.5,161.8,66.9,331.8,107.6,506
						c40.7,177.9,82,346.2,126,504.4c45.9,158.5,94.8,308.8,151.9,446.3c19.4,47.3,40,92.5,61.4,137.2c5.9,12.8,14.8,31.2,27.6,56.1
						c2,3.9,4.3,7.9,6.6,11.5c8.2,15.8,17.4,32.5,27.9,51.5c23.3,41.3,47.6,82.4,73.2,121.4c47.6,70.9,100.4,135.9,157.5,196.2
						c183.4,202.8,457.5,411.5,840.1,480.4c-1605.1,2741.5-4579,4583.9-7985.4,4587.8C4155,5647.2,4.9,1506.3,0-3607.9
						c-1.6-1486.6,348.2-2891.8,969.7-4137.2c184.4,84,342.9,222.2,453.5,403.3l5.9,8.2c2.6,4.6,5.9,8.9,8.9,13.8
						c53.8,84.7,98.1,176.6,135.5,280.3c34.8,94.5,66,202.8,95.2,330.5c3.9,21.3,706.2,3844.2,748.6,4072.9l-613-0.7l301.3,1018.3
						l480.4,2l51.2,265.2c5.6,36.1,11.2,71.9,17.7,109l15.1,85.3c28.6,163.1,61,348.5,93.5,479.1c26.3,109.3,51.5,198.9,79.7,281.6
						c40.4,125,81.7,235,126.7,336c72.2,159.2,153.3,298.3,247.8,426.6c99.4,134.9,210.4,255.3,339,369.2
						c92.9,82,194.6,159.2,302.9,227.7c114.2,73.8,238.6,138.2,369.8,192.3c142.4,58.1,289.4,102.1,437.5,132.6
						c162.1,32.8,330.1,48.9,498.5,48.9h21.3c166.7,0,324.6-15.8,469-46.9c57.8-11.8,110.6-27.6,161.8-43l8.9-2.6L5490.6,167.4
						l-13.8,8.2c-6.9,3.6-13.5,7.2-21,11.2c-51.2,23.6-107.3,42.3-166.7,54.5c-62.4,13.5-130,20.3-200.8,20.3l-6.9-0.3
						c-74.2,0-146.7-7.2-216.3-21c-61.7-12.1-121.8-30.5-184.4-55.8l-7.9-2.6c-3.6-0.7-6.9-2-10.2-3.3
						c-46.3-17.7-91.2-39.4-136.8-66.9c-44-27.6-86.3-58.7-126.3-92.9c-72.9-61.4-134.9-133.2-190.3-219.5
						c-52.5-83-95.8-173.3-132.9-275c-34.1-92.2-64.6-197.9-93.5-323.6c-3.3-15.1-19.4-108-34.1-190c-11.5-67.6-22.6-129-25.3-141.8
						l-68.9-486l733.8,2.6l-302.6-1023.9l-600.2,3.6l-554.3-3081.2L2988-6464.3c-33.5-177.2-62.4-325.5-105-480.1
						c-53.2-194.9-112.6-364.6-181.5-518.8c-72.9-160.5-155.6-302.9-252.7-435.2c-100.4-136.8-213.3-259.9-345.6-377.1
						c-96.5-85.3-200.5-163.1-309.1-232.3c-93.2-59.7-192.6-112.9-295.7-159.8c1650.4-2530.8,4504.8-4204.2,7751.7-4207.8
						c5113.2-4.9,9262.3,4135.3,9267.5,9248.8C18519-2314.9,18246.9-1066.9,17756.3,64z"/>
				</defs>
				<clipPath id="SVGID_00000163759436730026893090000016381068796048087982_">
					<use xlink:href="#SVGID_00000115492316352662365090000008405059566014429332_"  style="overflow:visible;"/>
				</clipPath>
				<g id="g94" style="clip-path:url(#SVGID_00000163759436730026893090000016381068796048087982_);">
					
						<linearGradient id="path108_00000094620601551138918190000011943716969166805907_" gradientUnits="userSpaceOnUse" x1="24988.3945" y1="12372.6494" x2="24989.3945" y2="12372.6494" gradientTransform="matrix(149.9236 263.0039 263.0039 -149.9236 -6995197.5 -4727819)">
						<stop  offset="0" style="stop-color:#7F161B"/>
						<stop  offset="0.5" style="stop-color:#CC1E25"/>
						<stop  offset="1" style="stop-color:#ED1736"/>
					</linearGradient>
					<path id="path108" style="fill:url(#path108_00000094620601551138918190000011943716969166805907_);" d="M12433.4-2861.3
						c-12.5-162.8-37.4-340.3-70.9-537.2c-33.5-198.2-69.9-378.1-113.2-542.8c-43.6-164.4-93.9-315-154.9-453.5
						c-60.7-138.5-131.9-265.2-216.9-383.3c-85-118.8-184.1-230-300.6-335.1c-85.5-76.7-176.7-146.8-273-209.4
						c-101.1-65.3-213-127-335.4-178.2c-123.1-51.9-255.3-93.9-398.4-126.3c-143.7-29.9-297.7-48.9-462.1-50.2
						c-164.1-3-312.1,11.5-445.7,38.4c-133.9,26.9-253,66.9-357.7,116.2c-104.7,49.2-196.6,107-275,171.6
						c-78.8,65.3-145.7,135.2-201.2,207.1c-81.1,105.3-141.8,215-186.7,334.4c-43.6,119.5-70.2,247.4-82.7,387.2
						c-11.5,140.8-9.2,293.1,6.6,460.4c14.8,168.4,42.3,350.8,78.8,553c37.4,200.2,78.4,381.3,125.4,546.4
						c47.6,166.1,101.1,315.7,164.4,453.9c64.6,137.2,138.2,262.9,226.1,380c88.3,116.2,189,224.8,307.8,327.2
						c80.7,69.9,172,138.5,273,201.2c101.4,63,212.3,119.5,333.1,168.4c121.1,47.3,252,87.3,392.8,113.2
						c141.1,27.6,291.7,42,452.2,39.7c159.5-0.7,304.2-17.1,433.8-46.6c130.3-28.2,246.1-69.6,348.5-118.5
						c102.7-48.6,192-107.6,269.1-170.6c76.8-63.3,141.4-131.6,194.3-201.8c79.4-102.1,140.1-209,183.8-324.6
						c44.3-115.5,71.2-238.6,84.3-374.4C12447.5-2551.2,12446.5-2698.9,12433.4-2861.3L12433.4-2861.3z M8324.7-2861.3
						c-12.5-162.8-37.4-340.3-71.2-537.2c-33.1-198.2-69.9-378.4-113.2-542.8c-43.3-164.4-93.9-315-154.6-453.5
						c-60.4-138.5-131.6-265.8-216.3-383.6c-85.3-118.5-184.4-229.4-300.9-334.7c-80.7-72.9-171.3-143.4-272.4-209.7
						c-101.4-65-213-126.7-335.7-177.5c-122.7-52.2-255.3-94.5-398.4-126.3c-143.4-29.5-297.6-48.9-461.4-50.5
						c-164.4-2.6-312.7,11.8-445.7,38.7c-133.6,26.6-253,66.6-357.4,116.5c-105.3,48.9-196.2,106.7-275,171.3
						c-78.8,65-145.1,134.9-200.8,207.1c-81.4,104.7-142.4,215.6-186.7,334.4c-43.6,119.5-70.2,247.4-82.4,387.9
						c-11.5,140.1-9.2,292.4,6.2,459.8c14.8,168.4,42,350.8,79.1,552.6c37.4,200.5,78.1,382,125.4,546.7
						c47.3,166.1,100.7,315.7,164.4,454.2c64.3,137.2,138.2,263.2,225.8,380c87.9,116.2,189,224.8,307.2,327.2
						c81.1,69.9,172.3,138.2,273.4,201.2c101.1,63,212.3,119.5,333.4,168c120.8,47.6,252,87.6,392.8,114.2
						c140.8,26.9,291.4,41.7,451.9,39.4c159.5-0.7,303.9-17.1,433.8-46.9c130.6-27.9,245.8-69.2,348.8-118.5
						c102.7-49.6,192-108,268.4-170.6c76.8-63.3,141.4-131.6,194.6-201.8c79.1-102.1,139.5-208.7,183.8-324.6
						c43.6-116.2,71.2-238.9,84-374.8C8339.1-2551.2,8337.8-2698.9,8324.7-2861.3L8324.7-2861.3z M17756.3,64
						c-52.5-9.8-102.1-24.3-148.7-43c-47.3-20-92.9-43.3-136.5-72.2c-42.7-28.2-85-61.7-126-99.1c-75.8-67.6-139.1-147-194.3-236
						c-54.5-89.3-101.1-187.7-140.5-296.3c-39.7-107-73.2-224.1-104-347.5c-28.9-123.4-56.1-254.3-82-391.8
						c-15.8-82-149.6-868.7-256.6-1506.6c-0.3,0-145.7-827.6-145.7-827.6s-3.6-21-8.5-51.9c-2.6-15.4-5.9-31.5-8.5-45.9
						c-11.5-66.6-19-130.3-25.3-192c-3.3-27.9-5.9-52.2-6.9-70.2c-1.3-24.6-3.6-73.5-3.6-73.5c1-3.6,1.6-6.9,2-10.5
						c-0.7-64.3,1.6-126,11.8-182.5c13.5-73.2,37.1-139.5,72.9-195.9c21.3-30.2,45.3-58.1,72.5-82c26.9-24,57.8-44,90.6-60.4
						c34.1-16.7,70.9-28.6,111.2-36.8c6.6-1.6,13.5-1.6,20.3-3.6l-292.7-938.9c-30.2-0.3-60.4-1.6-91.2-1
						c-110.3,3.9-211.7,16.7-304.9,39.4c-91.9,22-176.9,52.2-254.3,92.2c-14.4,7.5-27.6,16.7-41.3,25.3
						c-54.5,28.2-106.3,57.8-153.6,91.9c-71.5,52.2-133.9,111.2-185.7,175.6c-83,105-140.5,227.8-178.9,360.7
						c-47.3-83-104-165.4-172.6-244.5c-30.2-34.1-61.4-66-93.5-96.5l-3-5.3c-6.6-5.3-13.1-11.2-19-16.4
						c-15.8-14.8-31.2-28.9-47.6-42c-0.7-0.3-0.7-1.3-1.6-1.6c-16.7-14.4-33.5-27.9-50.5-41.3c-49.9-39.7-99.8-75.8-149.6-107.6
						c-89.6-57.8-180.2-102.7-273.4-137.5c-93.2-34.1-190-57.8-291.4-71.9c-102.4-14.1-209.4-18.4-324.2-14.4
						c-105.7,3.9-207.7,16.7-304.5,39.1c-96.8,22.6-189,52.5-273,91.6c-84.7,38.4-161.1,85-229.4,137.5
						c-67.6,52.2-126.7,111.2-174.9,175.2c-87,116.8-143.1,254-175.2,403.3c-32.5,148-42.3,309.8-37.4,478.5
						c5.9,168,26.9,341.3,54.5,514.6c28.6,173.3,63.7,345.9,98.5,512.9c34.8,166.1,71.2,338.7,114.2,508.7
						c43.3,171,93.2,340,155.2,501.4c61.7,161.8,135.5,315.4,226.8,453.5c90.2,138.8,198.5,263.8,328.8,365.9
						c71.5,58.1,151.6,109,236.9,153.6c86,44,176.9,80.7,272.1,109.9c95.2,29.9,194.6,49.6,295.7,63
						c101.4,11.8,204.5,15.4,308.2,9.5c107-6.2,207.7-19,299.6-41c92.5-20.7,178.2-50.5,256.3-89.9c77.8-38.7,149-88.3,214.3-148
						c57.8-53.5,109.6-116.8,157.2-188.7c8.5,62,17.7,124.4,29.5,188.7c29.5,161.8,66.9,331.8,107.6,506
						c40.7,177.9,82,346.2,126,504.4c45.9,158.5,94.8,308.8,151.9,446.3c19.4,47.3,40,92.5,61.4,137.2c5.9,12.8,14.8,31.2,27.6,56.1
						c2,3.9,4.3,7.9,6.6,11.5c8.2,15.8,17.4,32.5,27.9,51.5c23.3,41.3,47.6,82.4,73.2,121.4c47.6,70.9,100.4,135.9,157.5,196.2
						c183.4,202.8,457.5,411.5,840.1,480.4c-1605.1,2741.5-4579,4583.9-7985.4,4587.8C4155,5647.2,4.9,1506.3,0-3607.9
						c-1.6-1486.6,348.2-2891.8,969.7-4137.2c184.4,84,342.9,222.2,453.5,403.3l5.9,8.2c2.6,4.6,5.9,8.9,8.9,13.8
						c53.8,84.7,98.1,176.6,135.5,280.3c34.8,94.5,66,202.8,95.2,330.5c3.9,21.3,706.2,3844.2,748.6,4072.9l-613-0.7l301.3,1018.3
						l480.4,2l51.2,265.2c5.6,36.1,11.2,71.9,17.7,109l15.1,85.3c28.6,163.1,61,348.5,93.5,479.1c26.3,109.3,51.5,198.9,79.7,281.6
						c40.4,125,81.7,235,126.7,336c72.2,159.2,153.3,298.3,247.8,426.6c99.4,134.9,210.4,255.3,339,369.2
						c92.9,82,194.6,159.2,302.9,227.7c114.2,73.8,238.6,138.2,369.8,192.3c142.4,58.1,289.4,102.1,437.5,132.6
						c162.1,32.8,330.1,48.9,498.5,48.9h21.3c166.7,0,324.6-15.8,469-46.9c57.8-11.8,110.6-27.6,161.8-43l8.9-2.6L5490.6,167.4
						l-13.8,8.2c-6.9,3.6-13.5,7.2-21,11.2c-51.2,23.6-107.3,42.3-166.7,54.5c-62.4,13.5-130,20.3-200.8,20.3l-6.9-0.3
						c-74.2,0-146.7-7.2-216.3-21c-61.7-12.1-121.8-30.5-184.4-55.8l-7.9-2.6c-3.6-0.7-6.9-2-10.2-3.3
						c-46.3-17.7-91.2-39.4-136.8-66.9c-44-27.6-86.3-58.7-126.3-92.9c-72.9-61.4-134.9-133.2-190.3-219.5
						c-52.5-83-95.8-173.3-132.9-275c-34.1-92.2-64.6-197.9-93.5-323.6c-3.3-15.1-19.4-108-34.1-190c-11.5-67.6-22.6-129-25.3-141.8
						l-68.9-486l733.8,2.6l-302.6-1023.9l-600.2,3.6l-554.3-3081.2L2988-6464.3c-33.5-177.2-62.4-325.5-105-480.1
						c-53.2-194.9-112.6-364.6-181.5-518.8c-72.9-160.5-155.6-302.9-252.7-435.2c-100.4-136.8-213.3-259.9-345.6-377.1
						c-96.5-85.3-200.5-163.1-309.1-232.3c-93.2-59.7-192.6-112.9-295.7-159.8c1650.4-2530.8,4504.8-4204.2,7751.7-4207.8
						c5113.2-4.9,9262.3,4135.3,9267.5,9248.8C18519-2314.9,18246.9-1066.9,17756.3,64"/>
				</g>
			</g>
		</g>
	</g>
</g>
</svg>
